<svg width="24" height="24" viewBox="0 0 24 24" fill="none" xmlns="http://www.w3.org/2000/svg">
<path d="M8.26653 14.6797C8.08253 14.6797 7.95853 14.6977 7.89453 14.7157V15.8937C7.97053 15.9117 8.06553 15.9167 8.19653 15.9167C8.67553 15.9167 8.97053 15.6747 8.97053 15.2657C8.97053 14.8997 8.71653 14.6797 8.26653 14.6797ZM11.7535 14.6917C11.5535 14.6917 11.4235 14.7097 11.3465 14.7277V17.3377C11.4235 17.3557 11.5475 17.3557 11.6595 17.3557C12.4765 17.3617 13.0085 16.9117 13.0085 15.9597C13.0145 15.1297 12.5295 14.6917 11.7535 14.6917Z" fill="white"/>
<path d="M14 2H6C5.46957 2 4.96086 2.21071 4.58579 2.58579C4.21071 2.96086 4 3.46957 4 4V20C4 20.5304 4.21071 21.0391 4.58579 21.4142C4.96086 21.7893 5.46957 22 6 22H18C18.5304 22 19.0391 21.7893 19.4142 21.4142C19.7893 21.0391 20 20.5304 20 20V8L14 2ZM14 9H13V4L18 9H14Z" fill="white"/>
<path d="M9.5 14.7031C9.5 14.8326 9.36016 14.9375 9.1875 14.9375H8.875C8.52969 14.9375 8.25 15.1473 8.25 15.4062V16.3438C8.25 16.6027 8.52969 16.8125 8.875 16.8125H9.1875C9.36016 16.8125 9.5 16.9174 9.5 17.0469V17.5156C9.5 17.6451 9.36016 17.75 9.1875 17.75H8.875C7.83945 17.75 7 17.1204 7 16.3438V15.4062C7 14.6296 7.83945 14 8.875 14H9.1875C9.36016 14 9.5 14.1049 9.5 14.2344V14.7031ZM11.2293 17.75H10.75C10.5773 17.75 10.4375 17.6451 10.4375 17.5156V17.0469C10.4375 16.9174 10.5773 16.8125 10.75 16.8125H11.2293C11.4617 16.8125 11.6359 16.71 11.6359 16.6186C11.6359 16.5805 11.6066 16.5406 11.5531 16.5061L10.698 15.9562C10.3672 15.7446 10.1773 15.444 10.1773 15.1317C10.1773 14.5077 10.9203 14.0003 11.834 14.0003H12.3125C12.4852 14.0003 12.625 14.1052 12.625 14.2347V14.7034C12.625 14.8329 12.4852 14.9378 12.3125 14.9378H11.8332C11.6008 14.9378 11.4266 15.0403 11.4266 15.1317C11.4266 15.1698 11.4559 15.2097 11.5094 15.2442L12.3645 15.7941C12.6953 16.0057 12.8852 16.3063 12.8852 16.6186C12.8855 17.2423 12.143 17.75 11.2293 17.75ZM14.5 14.2344V14.8437C14.5 15.4376 14.7227 16.0206 15.125 16.5102C15.5273 16.0209 15.75 15.4376 15.75 14.8437V14.2344C15.75 14.1049 15.8898 14 16.0625 14H16.6875C16.8602 14 17 14.1049 17 14.2344V14.8437C17 15.8832 16.4969 16.862 15.5828 17.6003C15.4648 17.6955 15.2988 17.75 15.125 17.75C14.9512 17.75 14.7852 17.6955 14.6672 17.6003C13.7531 16.862 13.25 15.8832 13.25 14.8437V14.2344C13.25 14.1049 13.3898 14 13.5625 14H14.1875C14.3602 14 14.5 14.1049 14.5 14.2344Z" fill="#202124"/>
</svg>
