<svg width="165" height="107" viewBox="0 0 165 107" fill="none" xmlns="http://www.w3.org/2000/svg">
<circle cx="72" cy="57.5" r="30.5" fill="#E1E3E3"/>
<path d="M45.5 97.5H57" stroke="#262103"/>
<circle cx="5" cy="98" r="5" fill="#FF331C"/>
<circle cx="21" cy="98" r="5" fill="#FF331C"/>
<circle cx="37" cy="98" r="5" fill="#FF331C"/>
<path d="M37.4184 106.5C32.769 106.5 29 102.731 29 98.0816" stroke="#262103" stroke-width="0.886144"/>
<path d="M37.4184 90C32.769 90 29 93.769 29 98.4184" stroke="#262103" stroke-width="0.886144"/>
<path d="M45.5 98.4184C45.5 93.769 41.731 90 37.0816 90" stroke="#262103" stroke-width="0.886144"/>
<path d="M57 75C71.3594 75 83 63.3594 83 49L31 49C31 63.3594 42.6406 75 57 75Z" fill="#0D40BF"/>
<circle cx="72" cy="57.5" r="30" stroke="#262103"/>
<path d="M64.5 58.5C69.7467 58.5 74 54.2467 74 49H55C55 54.2467 59.2533 58.5 64.5 58.5Z" fill="#262103"/>
<path d="M64 48.8698L148 48.8672V82L64 48.8698Z" fill="#FFCD36"/>
<path d="M66 53L147.5 85.5" stroke="#FFCD36"/>
<circle cx="147.5" cy="85.5" r="17" stroke="#262103"/>
<path d="M159.5 85C159.5 91.9036 153.904 97.5 147 97.5" stroke="#262103" stroke-width="1.31579"/>
<path d="M0.5 57.4992L9.5 49.4992H24.5M63.5 49.4992H24.5M24.5 49.4992V21.2266C25 19.651 26.8 16.5 30 16.5C33.2 16.5 101.667 16.5 135.5 16.5H143.5V48.5M143.5 48.5V1H151V68M143.5 48.5V68.5" stroke="#262103"/>
<path d="M135 16.5L150.75 7.40673V25.5933L135 16.5Z" fill="#E1E3E3"/>
</svg>
